PathFileType	4	(X/Y/Z)	 s10c0102.trc
DataRate	CameraRate	NumFrames	NumMarkers	Units	OrigDataRate	OrigDataStartFrame	OrigNumFrames
200	200	4	50	mm	200	1501	2000
Frame#	Time	racr			lacr			c7			jug			rlel			rdr			llel			ldr			s2			lic			ric			lasi			rasi			rpsi			lpsi			rgt			lgt			rth1			rth2			rth3			rth4			rlfc			rmfc			rsh1			rsh2			rsh3			rsh4			rlmal			rmmal			rcal			rtoe			rmt5			lth1			lth2			lth4			lth3			llfc			lmfc			llmal			lmmal			lcal			lmt5			lsh1			lsh2			lsh3			lsh4			ltoe			SBIKE			LBIKE			RBIKE			
		X1	Y1	Z1	X2	Y2	Z2	X3	Y3	Z3	X4	Y4	Z4	X5	Y5	Z5	X6	Y6	Z6	X7	Y7	Z7	X8	Y8	Z8	X9	Y9	Z9	X10	Y10	Z10	X11	Y11	Z11	X12	Y12	Z12	X13	Y13	Z13	X14	Y14	Z14	X15	Y15	Z15	X16	Y16	Z16	X17	Y17	Z17	X18	Y18	Z18	X19	Y19	Z19	X20	Y20	Z20	X21	Y21	Z21	X22	Y22	Z22	X23	Y23	Z23	X24	Y24	Z24	X25	Y25	Z25	X26	Y26	Z26	X27	Y27	Z27	X28	Y28	Z28	X29	Y29	Z29	X30	Y30	Z30	X31	Y31	Z31	X32	Y32	Z32	X33	Y33	Z33	X34	Y34	Z34	X35	Y35	Z35	X36	Y36	Z36	X37	Y37	Z37	X38	Y38	Z38	X39	Y39	Z39	X40	Y40	Z40	X41	Y41	Z41	X42	Y42	Z42	X43	Y43	Z43	X44	Y44	Z44	X45	Y45	Z45	X46	Y46	Z46	X47	Y47	Z47	X48	Y48	Z48	X49	Y49	Z49	X50	Y50	Z50	
1501	7.5050	451.386295	1282.284829	-58.068250	435.829856	1270.643127	-368.907843	401.871931	1322.194851	-207.075579	396.208258	1176.706477	-203.360965	494.578069	1036.603224	52.053096	643.363430	874.165618	-6.775008	488.085351	1011.381938	-464.735700	656.561207	888.846112	-371.672650	-104.606156	1091.935073	-207.042117	62.087067	1139.552120	-352.986320	72.787404	1109.327306	-50.676964	91.213118	1052.448760	-314.234802	73.689679	1022.749820	-70.167320	-69.732730	1146.268331	-139.861152	-62.074789	1161.137446	-252.613163	-46.758919	983.320284	-23.041433	-0.177058	1021.825438	-412.725788	11.673198	852.071348	2.087035	70.639546	785.426639	-3.863351	86.583769	702.005739	-15.840545	104.181694	803.255678	-4.827255	141.348757	610.008012	-26.243022	145.923575	604.455082	-142.803145	72.218784	514.790542	-11.510170	73.325680	426.981340	-26.066496	31.391380	352.814647	-41.763608	107.649186	421.946755	-42.221886	8.572290	253.768969	-62.146728	42.349266	263.484824	-137.249117	-38.970251	245.315289	-114.053201	189.694600	168.894707	-86.626669	97.873963	161.519859	-33.330450	124.890180	991.311445	-403.528375	203.807328	1008.086130	-371.112999	200.714367	1039.058868	-350.632473	288.461103	983.907227	-362.624369	392.075717	972.862000	-325.263496	383.876956	951.689321	-197.453480	213.195181	632.682349	-359.495653	226.118987	620.793036	-280.463872	152.390966	623.389839	-321.074392	261.703943	482.092039	-381.611933	331.855365	873.426925	-362.028429	316.692490	788.066985	-357.319084	259.368153	720.103423	-363.832113	343.810722	775.133896	-334.252236	339.539948	449.479420	-325.021635	-205.000065	834.018417	-224.032771	-78.280425	81.918674	-423.624508	-102.741802	80.521342	-24.365026	
1502	7.5100	452.642528	1282.073163	-59.499253	435.327260	1270.499628	-370.505058	402.596988	1321.900964	-208.009708	396.649793	1176.417757	-204.131270	495.356350	1037.006771	51.453077	643.389281	874.140732	-6.824399	487.423860	1010.728240	-465.418527	656.540525	888.764115	-371.602602	-104.484634	1093.591651	-208.039110	62.292814	1141.572504	-351.396787	73.311015	1109.829657	-50.851201	90.287848	1053.450177	-314.111212	73.393067	1023.711852	-69.975680	-68.994247	1147.492655	-140.228807	-61.784909	1163.304337	-253.182117	-47.611779	985.236078	-23.214486	0.413344	1023.356367	-413.832278	11.331942	852.915257	1.965312	71.204811	786.995806	-3.506475	88.641463	703.974749	-15.534054	104.544185	805.719861	-3.803417	143.826748	613.040406	-24.838849	150.309294	605.577833	-141.128677	72.738253	519.209378	-10.725482	71.691690	431.448014	-25.782798	28.025418	358.470685	-41.856147	105.960747	425.689976	-41.799995	2.119930	260.275148	-62.804433	36.904965	269.365437	-137.595242	-45.554890	253.190506	-114.914024	181.091390	170.697053	-87.002451	89.004732	165.846192	-34.040356	124.703668	992.192494	-403.829785	203.806524	1006.995238	-370.911513	201.357751	1038.072645	-350.533261	287.846555	980.808501	-362.652714	390.271984	969.190829	-326.217308	381.054147	948.955670	-198.259744	216.414499	626.755494	-359.295235	229.855772	615.854497	-280.749700	155.834176	615.909164	-321.299990	270.207541	478.668799	-381.925883	328.917938	870.709970	-360.311286	316.345442	784.927652	-357.312002	260.755842	715.439457	-363.714015	344.259751	772.225891	-334.999398	349.432687	449.198113	-324.652922	-205.043177	834.010237	-224.141568	-78.203281	82.142005	-423.931776	-102.730618	80.483450	-24.381721	
1503	7.5150	453.769778	1281.794772	-60.844987	434.914479	1270.414548	-371.767078	403.234647	1321.662480	-208.852508	396.996946	1176.182367	-204.923428	496.043542	1037.338530	50.791012	643.345710	874.137602	-6.901325	486.940874	1010.289583	-465.837515	656.487195	888.661152	-371.591966	-104.494104	1095.364214	-208.824271	62.234116	1143.330137	-349.611889	73.757967	1110.342234	-51.116334	89.160080	1053.965276	-313.611588	73.162461	1024.619398	-69.769219	-68.580736	1148.892430	-140.598949	-61.686147	1165.254235	-253.536415	-48.468633	986.968326	-23.470443	0.835444	1024.459045	-414.599398	11.197823	853.856000	1.593113	72.348840	789.046995	-3.464048	91.425783	706.226751	-15.110150	105.261086	808.217238	-3.102577	147.164494	616.437644	-23.525541	155.820881	607.693163	-139.567605	74.306857	523.920420	-9.938554	70.894919	436.396846	-25.474140	25.269236	364.697665	-41.825929	105.100296	429.611626	-41.526898	-3.853393	267.560069	-63.337905	31.449296	275.725007	-138.043573	-51.539884	261.695277	-115.598092	172.806976	173.001165	-87.364978	80.414591	170.972140	-34.579195	124.072297	992.203266	-403.893412	203.537524	1004.905103	-370.928270	201.683337	1036.147662	-350.633261	286.819654	976.657803	-362.852526	388.602184	964.148367	-327.398481	378.428537	945.383596	-199.218995	219.782745	620.728383	-359.948578	233.261276	609.947453	-281.266015	159.098958	607.072965	-322.173322	278.549964	474.626548	-381.986040	326.163175	866.576041	-358.797142	315.855205	780.324368	-357.707225	261.622971	709.829149	-363.961824	344.414904	767.868310	-336.038931	359.011064	448.714734	-324.718994	-205.071853	834.004596	-224.147599	-78.345242	81.535785	-423.213710	-102.773715	80.527421	-24.374268	
1504	7.5200	454.706700	1281.481401	-62.192455	434.515187	1270.344365	-372.804525	403.870244	1321.324959	-209.627113	397.324894	1175.850136	-205.616911	496.747723	1037.744065	50.173968	643.338880	874.155102	-6.921522	486.527850	1010.015701	-466.113302	656.441686	888.597699	-371.684574	-104.490206	1096.887214	-209.645111	62.117525	1145.000120	-348.102724	74.210240	1110.806650	-51.979279	88.386512	1054.437339	-313.892978	72.828655	1025.609113	-69.593723	-68.177835	1150.212584	-141.314613	-61.676047	1167.054055	-253.553682	-49.146718	988.752893	-23.747186	1.010670	1025.240848	-414.914394	11.453438	854.844098	1.258800	74.087298	791.528855	-3.304612	94.762620	708.797326	-14.603668	106.425617	811.031660	-2.596562	151.263718	620.054372	-22.403587	162.459435	610.438826	-137.818786	76.673237	528.950013	-9.181211	70.682752	441.731154	-25.206298	23.044743	371.388311	-41.787158	104.686268	434.059795	-41.400541	-9.231976	275.711903	-63.548112	26.555104	282.696898	-138.451739	-57.125475	270.849878	-116.169139	164.627742	175.665200	-87.902860	72.191375	176.534016	-35.207076	122.968653	991.119077	-403.722926	202.939793	1002.179930	-371.205521	201.950042	1033.438220	-351.159974	285.425952	971.684770	-363.422337	386.132808	957.561957	-329.473761	375.834562	940.384733	-200.253006	221.643524	612.965646	-360.657674	236.879830	603.223233	-281.796345	161.427752	597.710211	-323.748694	286.515662	470.119522	-382.265029	323.634310	861.374514	-357.953813	315.233759	774.364632	-358.705025	262.106221	702.897334	-364.438403	344.442602	762.007913	-337.377560	367.914157	447.900536	-324.374668	-205.101327	833.966384	-224.286905	-78.297723	81.848909	-423.677520	-102.765036	80.541169	-24.383401	
